<?xml version="1.0" encoding="UTF-8"?>
<!-- Generator: visioncortex VTracer 1.0.0-alpha.4 -->
<svg version="1.1" xmlns="http://www.w3.org/2000/svg" width="512" height="512">
<path d="M0,0L512,0l0,512L0,512Z" fill="#FAFAFC"/>
<path d="M244,106l25,0l0,1l9,0l0,1l6,0l0,1l5,0l0,1l4,0l0,1l4,0l0,1l3,0l0,1l3,0l0,1l3,0l0,1l3,0l0,1l3,0l0,1l2,0l0,1l2,0l0,1l3,0l0,1l2,0l0,1l2,0l0,1l2,0l0,1l2,0l0,1l2,0l0,1l1,0l0,1l2,0l0,1l2,0l0,1l2,0l0,1l1,0l0,1l2,0l0,1l1,0l0,1l2,0l0,1l1,0l0,1l1,0l0,1l2,0l0,1l1,0l0,1l1,0l0,1l2,0l0,1l1,0l0,1l1,0l0,1l1,0l0,1l2,0l0,1l1,0l0,1l1,0l0,1l1,0l0,1l1,0l0,1l1,0l0,1l1,0l0,1l1,0l0,1l1,0l0,1l1,0l0,1l1,0l0,1l1,0l0,1l1,0l0,1l1,0l0,1l1,0l0,1l1,0l0,1l1,0l0,2l1,0l0,1l1,0l0,1l1,0l0,1l1,0l0,2l1,0l0,1l1,0l0,1l1,0l0,2l1,0l0,1l1,0l0,1l1,0l0,2l1,0l0,1l1,0l0,2l1,0l0,1l1,0l0,2l1,0l0,2l1,0l0,2l1,0l0,1l1,0l0,2l1,0l0,2l1,0l0,2l1,0l0,2l1,0l0,2l1,0l0,3l1,0l0,2l1,0l0,2l1,0l0,3l1,0l0,3l1,0l0,3l1,0l0,3l1,0l0,3l1,0l0,4l1,0l0,4l1,0l0,5l1,0l0,6l1,0l0,9l1,0l0,4l10,0l0,17l-10,0l0,4l-1,0l0,9l-1,0l0,6l-1,0l0,5l-1,0l0,4l-1,0l0,4l-1,0l0,3l-1,0l0,3l-1,0l0,3l-1,0l0,3l-1,0l0,3l-1,0l0,2l-1,0l0,2l-1,0l0,3l-1,0l0,2l-1,0l0,2l-1,0l0,2l-1,0l0,2l-1,0l0,2l-1,0l0,1l-1,0l0,2l-1,0l0,2l-1,0l0,2l-1,0l0,1l-1,0l0,2l-1,0l0,1l-1,0l0,2l-1,0l0,1l-1,0l0,1l-1,0l0,2l-1,0l0,1l-1,0l0,1l-1,0l0,2l-1,0l0,1l-1,0l0,1l-1,0l0,1l-1,0l0,2l-1,0l0,1l-1,0l0,1l-1,0l0,1l-1,0l0,1l-1,0l0,1l-1,0l0,1l-1,0l0,1l-1,0l0,1l-1,0l0,1l-1,0l0,1l-1,0l0,1l-1,0l0,1l-1,0l0,1l-1,0l0,1l-1,0l0,1l-1,0l0,1l-2,0l0,1l-1,0l0,1l-1,0l0,1l-1,0l0,1l-2,0l0,1l-1,0l0,1l-1,0l0,1l-2,0l0,1l-1,0l0,1l-1,0l0,1l-2,0l0,1l-1,0l0,1l-2,0l0,1l-1,0l0,1l-2,0l0,1l-2,0l0,1l-2,0l0,1l-1,0l0,1l-2,0l0,1l-2,0l0,1l-2,0l0,1l-2,0l0,1l-2,0l0,1l-3,0l0,1l-2,0l0,1l-2,0l0,1l-3,0l0,1l-3,0l0,1l-3,0l0,1l-3,0l0,1l-3,0l0,1l-4,0l0,1l-4,0l0,1l-5,0l0,1l-6,0l0,1l-9,0l0,1l-25,0l0-1l-9,0l0-1l-6,0l0-1l-5,0l0-1l-4,0l0-1l-4,0l0-1l-3,0l0-1l-3,0l0-1l-3,0l0-1l-3,0l0-1l-3,0l0-1l-2,0l0-1l-2,0l0-1l-3,0l0-1l-2,0l0-1l-2,0l0-1l-2,0l0-1l-2,0l0-1l-2,0l0-1l-1,0l0-1l-2,0l0-1l-2,0l0-1l-2,0l0-1l-1,0l0-1l-2,0l0-1l-1,0l0-1l-2,0l0-1l-1,0l0-1l-1,0l0-1l-2,0l0-1l-1,0l0-1l-1,0l0-1l-2,0l0-1l-1,0l0-1l-1,0l0-1l-1,0l0-1l-2,0l0-1l-1,0l0-1l-1,0l0-1l-1,0l0-1l-1,0l0-1l-1,0l0-1l-1,0l0-1l-1,0l0-1l-1,0l0-1l-1,0l0-1l-1,0l0-1l-1,0l0-1l-1,0l0-1l-1,0l0-1l-1,0l0-1l-1,0l0-1l-1,0l0-2l-1,0l0-1l-1,0l0-1l-1,0l0-1l-1,0l0-2l-1,0l0-1l-1,0l0-1l-1,0l0-2l-1,0l0-1l-1,0l0-1l-1,0l0-2l-1,0l0-1l-1,0l0-2l-1,0l0-1l-1,0l0-2l-1,0l0-2l-1,0l0-2l-1,0l0-1l-1,0l0-2l-1,0l0-2l-1,0l0-2l-1,0l0-2l-1,0l0-2l-1,0l0-3l-1,0l0-2l-1,0l0-2l-1,0l0-3l-1,0l0-3l-1,0l0-3l-1,0l0-3l-1,0l0-3l-1,0l0-4l-1,0l0-4l-1,0l0-5l-1,0l0-6l-1,0l0-9l-1,0l0-4l-10,0l0-17l10,0l0-4l1,0l0-9l1,0l0-6l1,0l0-5l1,0l0-4l1,0l0-4l1,0l0-3l1,0l0-3l1,0l0-3l1,0l0-3l1,0l0-3l1,0l0-2l1,0l0-2l1,0l0-3l1,0l0-2l1,0l0-2l1,0l0-2l1,0l0-2l1,0l0-2l1,0l0-1l1,0l0-2l1,0l0-2l1,0l0-2l1,0l0-1l1,0l0-2l1,0l0-1l1,0l0-2l1,0l0-1l1,0l0-1l1,0l0-2l1,0l0-1l1,0l0-1l1,0l0-2l1,0l0-1l1,0l0-1l1,0l0-1l1,0l0-2l1,0l0-1l1,0l0-1l1,0l0-1l1,0l0-1l1,0l0-1l1,0l0-1l1,0l0-1l1,0l0-1l1,0l0-1l1,0l0-1l1,0l0-1l1,0l0-1l1,0l0-1l1,0l0-1l1,0l0-1l1,0l0-1l2,0l0-1l1,0l0-1l1,0l0-1l1,0l0-1l2,0l0-1l1,0l0-1l1,0l0-1l2,0l0-1l1,0l0-1l1,0l0-1l2,0l0-1l1,0l0-1l2,0l0-1l1,0l0-1l2,0l0-1l2,0l0-1l2,0l0-1l1,0l0-1l2,0l0-1l2,0l0-1l2,0l0-1l2,0l0-1l2,0l0-1l3,0l0-1l2,0l0-1l2,0l0-1l3,0l0-1l3,0l0-1l3,0l0-1l3,0l0-1l3,0l0-1l4,0l0-1l4,0l0-1l5,0l0-1l6,0l0-1l9,0Zm1,18l0,1l-8,0l0,1l-6,0l0,1l-5,0l0,1l-4,0l0,1l-3,0l0,1l-4,0l0,1l-3,0l0,1l-2,0l0,1l-3,0l0,1l-2,0l0,1l-3,0l0,1l-2,0l0,1l-2,0l0,1l-2,0l0,1l-2,0l0,1l-2,0l0,1l-1,0l0,1l-2,0l0,1l-2,0l0,1l-1,0l0,1l-2,0l0,1l-2,0l0,1l-1,0l0,1l-1,0l0,1l-2,0l0,1l-1,0l0,1l-1,0l0,1l-2,0l0,1l-1,0l0,1l-1,0l0,1l-1,0l0,1l-2,0l0,1l-1,0l0,1l-1,0l0,1l-1,0l0,1l-1,0l0,1l-1,0l0,1l-1,0l0,1l-1,0l0,1l-1,0l0,1l-1,0l0,1l-1,0l0,1l-1,0l0,1l-1,0l0,1l-1,0l0,2l-1,0l0,1l-1,0l0,1l-1,0l0,1l-1,0l0,2l-1,0l0,1l-1,0l0,1l-1,0l0,2l-1,0l0,1l-1,0l0,1l-1,0l0,2l-1,0l0,2l-1,0l0,1l-1,0l0,2l-1,0l0,2l-1,0l0,1l-1,0l0,2l-1,0l0,2l-1,0l0,2l-1,0l0,2l-1,0l0,2l-1,0l0,3l-1,0l0,2l-1,0l0,3l-1,0l0,2l-1,0l0,3l-1,0l0,4l-1,0l0,3l-1,0l0,4l-1,0l0,5l-1,0l0,6l-1,0l0,8l-1,0l0,3l27,0l0,17l-27,0l0,3l1,0l0,8l1,0l0,6l1,0l0,5l1,0l0,4l1,0l0,3l1,0l0,4l1,0l0,3l1,0l0,2l1,0l0,3l1,0l0,2l1,0l0,3l1,0l0,2l1,0l0,2l1,0l0,2l1,0l0,2l1,0l0,2l1,0l0,1l1,0l0,2l1,0l0,2l1,0l0,1l1,0l0,2l1,0l0,2l1,0l0,1l1,0l0,1l1,0l0,2l1,0l0,1l1,0l0,1l1,0l0,2l1,0l0,1l1,0l0,1l1,0l0,1l1,0l0,2l1,0l0,1l1,0l0,1l1,0l0,1l1,0l0,1l1,0l0,1l1,0l0,1l1,0l0,1l1,0l0,1l1,0l0,1l1,0l0,1l1,0l0,1l1,0l0,1l1,0l0,1l2,0l0,1l1,0l0,1l1,0l0,1l1,0l0,1l2,0l0,1l1,0l0,1l1,0l0,1l2,0l0,1l1,0l0,1l1,0l0,1l2,0l0,1l2,0l0,1l1,0l0,1l2,0l0,1l2,0l0,1l1,0l0,1l2,0l0,1l2,0l0,1l2,0l0,1l2,0l0,1l2,0l0,1l3,0l0,1l2,0l0,1l3,0l0,1l2,0l0,1l3,0l0,1l4,0l0,1l3,0l0,1l4,0l0,1l5,0l0,1l6,0l0,1l8,0l0,1l23,0l0-1l8,0l0-1l6,0l0-1l5,0l0-1l4,0l0-1l3,0l0-1l4,0l0-1l3,0l0-1l2,0l0-1l3,0l0-1l2,0l0-1l3,0l0-1l2,0l0-1l2,0l0-1l2,0l0-1l2,0l0-1l2,0l0-1l1,0l0-1l2,0l0-1l2,0l0-1l1,0l0-1l2,0l0-1l2,0l0-1l1,0l0-1l1,0l0-1l2,0l0-1l1,0l0-1l1,0l0-1l2,0l0-1l1,0l0-1l1,0l0-1l1,0l0-1l2,0l0-1l1,0l0-1l1,0l0-1l1,0l0-1l1,0l0-1l1,0l0-1l1,0l0-1l1,0l0-1l1,0l0-1l1,0l0-1l1,0l0-1l1,0l0-1l1,0l0-1l1,0l0-2l1,0l0-1l1,0l0-1l1,0l0-1l1,0l0-2l1,0l0-1l1,0l0-1l1,0l0-2l1,0l0-1l1,0l0-1l1,0l0-2l1,0l0-2l1,0l0-1l1,0l0-2l1,0l0-2l1,0l0-1l1,0l0-2l1,0l0-2l1,0l0-2l1,0l0-2l1,0l0-2l1,0l0-3l1,0l0-2l1,0l0-3l1,0l0-2l1,0l0-3l1,0l0-4l1,0l0-3l1,0l0-4l1,0l0-5l1,0l0-6l1,0l0-8l1,0l0-3l-27,0l0-17l27,0l0-3l-1,0l0-8l-1,0l0-6l-1,0l0-5l-1,0l0-4l-1,0l0-3l-1,0l0-4l-1,0l0-3l-1,0l0-2l-1,0l0-3l-1,0l0-2l-1,0l0-3l-1,0l0-2l-1,0l0-2l-1,0l0-2l-1,0l0-2l-1,0l0-2l-1,0l0-1l-1,0l0-2l-1,0l0-2l-1,0l0-1l-1,0l0-2l-1,0l0-2l-1,0l0-1l-1,0l0-1l-1,0l0-2l-1,0l0-1l-1,0l0-1l-1,0l0-2l-1,0l0-1l-1,0l0-1l-1,0l0-1l-1,0l0-2l-1,0l0-1l-1,0l0-1l-1,0l0-1l-1,0l0-1l-1,0l0-1l-1,0l0-1l-1,0l0-1l-1,0l0-1l-1,0l0-1l-1,0l0-1l-1,0l0-1l-1,0l0-1l-1,0l0-1l-2,0l0-1l-1,0l0-1l-1,0l0-1l-1,0l0-1l-2,0l0-1l-1,0l0-1l-1,0l0-1l-2,0l0-1l-1,0l0-1l-1,0l0-1l-2,0l0-1l-2,0l0-1l-1,0l0-1l-2,0l0-1l-2,0l0-1l-1,0l0-1l-2,0l0-1l-2,0l0-1l-2,0l0-1l-2,0l0-1l-2,0l0-1l-3,0l0-1l-2,0l0-1l-3,0l0-1l-2,0l0-1l-3,0l0-1l-4,0l0-1l-3,0l0-1l-4,0l0-1l-5,0l0-1l-6,0l0-1l-8,0l0-1Z" fill="#18345C"/>
<path d="M256,196l1,0l0,1l1,0l0,1l1,0l0,1l1,0l0,1l1,0l0,1l1,0l0,1l1,0l0,1l1,0l0,1l1,0l0,1l1,0l0,1l1,0l0,1l1,0l0,1l1,0l0,1l1,0l0,1l1,0l0,1l1,0l0,1l1,0l0,1l1,0l0,1l1,0l0,1l1,0l0,1l1,0l0,1l1,0l0,1l1,0l0,1l1,0l0,1l1,0l0,1l1,0l0,1l1,0l0,1l1,0l0,1l1,0l0,1l1,0l0,1l1,0l0,1l1,0l0,1l1,0l0,1l1,0l0,1l1,0l0,1l1,0l0,1l1,0l0,1l1,0l0,1l1,0l0,1l1,0l0,1l1,0l0,1l1,0l0,1l1,0l0,1l1,0l0,1l1,0l0,1l1,0l0,1l1,0l0,1l1,0l0,1l1,0l0,1l1,0l0,1l1,0l0,1l1,0l0,1l1,0l0,1l1,0l0,1l1,0l0,1l1,0l0,1l1,0l0,1l1,0l0,1l1,0l0,1l1,0l0,1l1,0l0,1l-1,0l0,1l-1,0l0,1l-1,0l0,1l-1,0l0,1l-1,0l0,1l-1,0l0,1l-1,0l0,1l-1,0l0,1l-1,0l0,1l-1,0l0,1l-1,0l0,1l-1,0l0,1l-1,0l0,1l-1,0l0,1l-1,0l0,1l-1,0l0,1l-1,0l0,1l-1,0l0,1l-1,0l0,1l-1,0l0,1l-1,0l0,1l-1,0l0,1l-1,0l0,1l-1,0l0,1l-1,0l0,1l-1,0l0,1l-1,0l0,1l-1,0l0,1l-1,0l0,1l-1,0l0,1l-1,0l0,1l-1,0l0,1l-1,0l0,1l-1,0l0,1l-1,0l0,1l-1,0l0,1l-1,0l0,1l-1,0l0,1l-1,0l0,1l-1,0l0,1l-1,0l0,1l-1,0l0,1l-1,0l0,1l-1,0l0,1l-1,0l0,1l-1,0l0,1l-1,0l0,1l-1,0l0,1l-1,0l0,1l-1,0l0,1l-1,0l0,1l-1,0l0,1l-1,0l0,1l-1,0l0,1l-1,0l0,1l-1,0l0,1l-1,0l0,1l-1,0l0,1l-1,0l0,1l-1,0l0,1l-1,0l0-1l-1,0l0-1l-1,0l0-1l-1,0l0-1l-1,0l0-1l-1,0l0-1l-1,0l0-1l-1,0l0-1l-1,0l0-1l-1,0l0-1l-1,0l0-1l-1,0l0-1l-1,0l0-1l-1,0l0-1l-1,0l0-1l-1,0l0-1l-1,0l0-1l-1,0l0-1l-1,0l0-1l-1,0l0-1l-1,0l0-1l-1,0l0-1l-1,0l0-1l-1,0l0-1l-1,0l0-1l-1,0l0-1l-1,0l0-1l-1,0l0-1l-1,0l0-1l-1,0l0-1l-1,0l0-1l-1,0l0-1l-1,0l0-1l-1,0l0-1l-1,0l0-1l-1,0l0-1l-1,0l0-1l-1,0l0-1l-1,0l0-1l-1,0l0-1l-1,0l0-1l-1,0l0-1l-1,0l0-1l-1,0l0-1l-1,0l0-1l-1,0l0-1l-1,0l0-1l-1,0l0-1l-1,0l0-1l-1,0l0-1l-1,0l0-1l-1,0l0-1l-1,0l0-1l-1,0l0-1l-1,0l0-1l-1,0l0-1l-1,0l0-1l-1,0l0-1l-1,0l0-1l-1,0l0-1l-1,0l0-1l1,0l0-1l1,0l0-1l1,0l0-1l1,0l0-1l1,0l0-1l1,0l0-1l1,0l0-1l1,0l0-1l1,0l0-1l1,0l0-1l1,0l0-1l1,0l0-1l1,0l0-1l1,0l0-1l1,0l0-1l1,0l0-1l1,0l0-1l1,0l0-1l1,0l0-1l1,0l0-1l1,0l0-1l1,0l0-1l1,0l0-1l1,0l0-1l1,0l0-1l1,0l0-1l1,0l0-1l1,0l0-1l1,0l0-1l1,0l0-1l1,0l0-1l1,0l0-1l1,0l0-1l1,0l0-1l1,0l0-1l1,0l0-1l1,0l0-1l1,0l0-1l1,0l0-1l1,0l0-1l1,0l0-1l1,0l0-1l1,0l0-1l1,0l0-1l1,0l0-1l1,0l0-1l1,0l0-1l1,0l0-1l1,0l0-1l1,0l0-1l1,0l0-1l1,0l0-1l1,0l0-1l1,0l0-1l1,0l0-1l1,0l0-1l1,0l0-1l1,0l0-1l1,0l0-1l1,0Z" fill="#224E6E"/>
<path d="M247,156l19,0l0,1l8,0l0,1l5,0l0,1l4,0l0,1l3,0l0,1l3,0l0,1l3,0l0,1l2,0l0,1l3,0l0,1l2,0l0,1l2,0l0,1l2,0l0,1l2,0l0,1l2,0l0,1l1,0l0,1l2,0l0,1l2,0l0,1l1,0l0,1l1,0l0,1l2,0l0,1l1,0l0,1l1,0l0,1l2,0l0,1l1,0l0,1l1,0l0,1l1,0l0,1l1,0l0,1l1,0l0,1l1,0l0,1l1,0l0,1l1,0l0,1l1,0l0,1l1,0l0,1l1,0l0,1l1,0l0,1l1,0l0,1l1,0l0,1l1,0l0,2l1,0l0,1l1,0l0,1l1,0l0,2l1,0l0,1l1,0l0,1l1,0l0,2l1,0l0,2l1,0l0,1l1,0l0,2l1,0l0,2l1,0l0,2l1,0l0,2l1,0l0,2l1,0l0,3l1,0l0,2l1,0l0,3l1,0l0,3l1,0l0,3l1,0l0,4l1,0l0,5l1,0l0,8l1,0l0,19l-1,0l0,8l-1,0l0,5l-1,0l0,4l-1,0l0,3l-1,0l0,3l-1,0l0,3l-1,0l0,2l-1,0l0,3l-1,0l0,2l-1,0l0,2l-1,0l0,2l-1,0l0,2l-1,0l0,2l-1,0l0,1l-1,0l0,2l-1,0l0,2l-1,0l0,1l-1,0l0,1l-1,0l0,2l-1,0l0,1l-1,0l0,1l-1,0l0,2l-1,0l0,1l-1,0l0,1l-1,0l0,1l-1,0l0,1l-1,0l0,1l-1,0l0,1l-1,0l0,1l-1,0l0,1l-1,0l0,1l-1,0l0,1l-1,0l0,1l-1,0l0,1l-1,0l0,1l-1,0l0,1l-1,0l0,1l-2,0l0,1l-1,0l0,1l-1,0l0,1l-2,0l0,1l-1,0l0,1l-1,0l0,1l-2,0l0,1l-2,0l0,1l-1,0l0,1l-2,0l0,1l-2,0l0,1l-2,0l0,1l-2,0l0,1l-2,0l0,1l-3,0l0,1l-2,0l0,1l-3,0l0,1l-3,0l0,1l-3,0l0,1l-4,0l0,1l-5,0l0,1l-8,0l0,1l-19,0l0-1l-8,0l0-1l-5,0l0-1l-4,0l0-1l-3,0l0-1l-3,0l0-1l-3,0l0-1l-2,0l0-1l-3,0l0-1l-2,0l0-1l-2,0l0-1l-2,0l0-1l-2,0l0-1l-2,0l0-1l-1,0l0-1l-2,0l0-1l-2,0l0-1l-1,0l0-1l-1,0l0-1l-2,0l0-1l-1,0l0-1l-1,0l0-1l-2,0l0-1l-1,0l0-1l-1,0l0-1l-1,0l0-1l-1,0l0-1l-1,0l0-1l-1,0l0-1l-1,0l0-1l-1,0l0-1l-1,0l0-1l-1,0l0-1l-1,0l0-1l-1,0l0-1l-1,0l0-1l-1,0l0-1l-1,0l0-2l-1,0l0-1l-1,0l0-1l-1,0l0-2l-1,0l0-1l-1,0l0-1l-1,0l0-2l-1,0l0-2l-1,0l0-1l-1,0l0-2l-1,0l0-2l-1,0l0-2l-1,0l0-2l-1,0l0-2l-1,0l0-3l-1,0l0-2l-1,0l0-3l-1,0l0-3l-1,0l0-3l-1,0l0-4l-1,0l0-5l-1,0l0-8l-1,0l0-19l1,0l0-8l1,0l0-5l1,0l0-4l1,0l0-3l1,0l0-3l1,0l0-3l1,0l0-2l1,0l0-3l1,0l0-2l1,0l0-2l1,0l0-2l1,0l0-2l1,0l0-2l1,0l0-1l1,0l0-2l1,0l0-2l1,0l0-1l1,0l0-1l1,0l0-2l1,0l0-1l1,0l0-1l1,0l0-2l1,0l0-1l1,0l0-1l1,0l0-1l1,0l0-1l1,0l0-1l1,0l0-1l1,0l0-1l1,0l0-1l1,0l0-1l1,0l0-1l1,0l0-1l1,0l0-1l1,0l0-1l1,0l0-1l1,0l0-1l2,0l0-1l1,0l0-1l1,0l0-1l2,0l0-1l1,0l0-1l1,0l0-1l2,0l0-1l2,0l0-1l1,0l0-1l2,0l0-1l2,0l0-1l2,0l0-1l2,0l0-1l2,0l0-1l3,0l0-1l2,0l0-1l3,0l0-1l3,0l0-1l3,0l0-1l4,0l0-1l5,0l0-1l8,0Zm0,10l0,1l-7,0l0,1l-5,0l0,1l-3,0l0,1l-4,0l0,1l-3,0l0,1l-2,0l0,1l-3,0l0,1l-2,0l0,1l-2,0l0,1l-2,0l0,1l-2,0l0,1l-2,0l0,1l-1,0l0,1l-2,0l0,1l-1,0l0,1l-2,0l0,1l-1,0l0,1l-1,0l0,1l-2,0l0,1l-1,0l0,1l-1,0l0,1l-1,0l0,1l-2,0l0,1l-1,0l0,1l-1,0l0,1l-1,0l0,1l-1,0l0,1l-1,0l0,1l-1,0l0,2l-1,0l0,1l-1,0l0,1l-1,0l0,1l-1,0l0,2l-1,0l0,1l-1,0l0,1l-1,0l0,2l-1,0l0,1l-1,0l0,2l-1,0l0,1l-1,0l0,2l-1,0l0,2l-1,0l0,2l-1,0l0,2l-1,0l0,2l-1,0l0,3l-1,0l0,2l-1,0l0,3l-1,0l0,4l-1,0l0,3l-1,0l0,5l-1,0l0,7l-1,0l0,19l1,0l0,7l1,0l0,5l1,0l0,3l1,0l0,4l1,0l0,3l1,0l0,2l1,0l0,3l1,0l0,2l1,0l0,2l1,0l0,2l1,0l0,2l1,0l0,2l1,0l0,1l1,0l0,2l1,0l0,1l1,0l0,2l1,0l0,1l1,0l0,1l1,0l0,2l1,0l0,1l1,0l0,1l1,0l0,1l1,0l0,2l1,0l0,1l1,0l0,1l1,0l0,1l1,0l0,1l1,0l0,1l1,0l0,1l2,0l0,1l1,0l0,1l1,0l0,1l1,0l0,1l2,0l0,1l1,0l0,1l1,0l0,1l2,0l0,1l1,0l0,1l2,0l0,1l1,0l0,1l2,0l0,1l2,0l0,1l2,0l0,1l2,0l0,1l2,0l0,1l3,0l0,1l2,0l0,1l3,0l0,1l4,0l0,1l3,0l0,1l5,0l0,1l7,0l0,1l19,0l0-1l7,0l0-1l5,0l0-1l3,0l0-1l4,0l0-1l3,0l0-1l2,0l0-1l3,0l0-1l2,0l0-1l2,0l0-1l2,0l0-1l2,0l0-1l2,0l0-1l1,0l0-1l2,0l0-1l1,0l0-1l2,0l0-1l1,0l0-1l1,0l0-1l2,0l0-1l1,0l0-1l1,0l0-1l1,0l0-1l2,0l0-1l1,0l0-1l1,0l0-1l1,0l0-1l1,0l0-1l1,0l0-1l1,0l0-2l1,0l0-1l1,0l0-1l1,0l0-1l1,0l0-2l1,0l0-1l1,0l0-1l1,0l0-2l1,0l0-1l1,0l0-2l1,0l0-1l1,0l0-2l1,0l0-2l1,0l0-2l1,0l0-2l1,0l0-2l1,0l0-3l1,0l0-2l1,0l0-3l1,0l0-4l1,0l0-3l1,0l0-5l1,0l0-7l1,0l0-19l-1,0l0-7l-1,0l0-5l-1,0l0-3l-1,0l0-4l-1,0l0-3l-1,0l0-2l-1,0l0-3l-1,0l0-2l-1,0l0-2l-1,0l0-2l-1,0l0-2l-1,0l0-2l-1,0l0-1l-1,0l0-2l-1,0l0-1l-1,0l0-2l-1,0l0-1l-1,0l0-1l-1,0l0-2l-1,0l0-1l-1,0l0-1l-1,0l0-1l-1,0l0-2l-1,0l0-1l-1,0l0-1l-1,0l0-1l-1,0l0-1l-1,0l0-1l-1,0l0-1l-2,0l0-1l-1,0l0-1l-1,0l0-1l-1,0l0-1l-2,0l0-1l-1,0l0-1l-1,0l0-1l-2,0l0-1l-1,0l0-1l-2,0l0-1l-1,0l0-1l-2,0l0-1l-2,0l0-1l-2,0l0-1l-2,0l0-1l-2,0l0-1l-3,0l0-1l-2,0l0-1l-3,0l0-1l-4,0l0-1l-3,0l0-1l-5,0l0-1l-7,0l0-1Z" fill="#C63A2C"/>
</svg>
