<?xml version="1.0" encoding="UTF-8"?>
<!-- Generator: visioncortex VTracer 1.0.0-alpha.4 -->
<svg version="1.1" xmlns="http://www.w3.org/2000/svg" width="512" height="512">
<path d="M0,512C0,341.333,0,170.667,0,0C170.667,0,341.333,0,512,0c0,170.667,0,341.333,0,512c-170.667,0-341.333,0-512,0Z" fill="#87AACF"/>
<path d="M0,512c0-19.277-.042-38.557,.118-57.834c.24-28.872-.862-47.446,16.655-71.109c21.38-28.881,55.518-46.392,88.547-58.485c105.331-38.564,277.497-37.4,368.076,36.063c9.707,7.873,17.032,17.777,26.44,25.725c2.679,2.263,10.879,6.856,12.164,9.64c1.797,3.895,0,20.819,0,26c0,30,0,60,0,90c-170.667,0-341.333,0-512,0Z" fill="#4A7A4E"/>
<path d="M494,381c-6.789,0-25.781-12.383-33.339-15.764c-22.026-9.85-45.325-16.562-69.103-20.551c-93.272-15.65-249.868,17.547-269.584,128.161c-2.29,12.845-1.148,26.242,.026,39.154c-40.667,0-81.333,0-122,0c-.104-18.516-.191-37.033-.337-55.549c-.112-14.168-1.074-29.033,2.144-42.92c2.086-9.004,6.156-17.274,11.166-24.997c21.004-32.376,57.97-51.477,93.249-64.29C214.186,285.03,414.179,285.919,494,381Z" fill="#60945C"/>
<path d="M451,113c4.934,82.841-110.593,91.743-120.689,15.754C319.736,49.159,440.423,33.523,451,113Z" fill="#FADC78"/>
<path d="M0,512c0-24,0-48,0-72c.33,0,.66,0,1,0c5.922,27.115,22.434,47.188,44.07,63.749C46.939,505.179,55,510.2,55,512c-18.333,0-36.667,0-55,0Z" fill="#DCE7F1"/>
</svg>
